<svg width="32" height="32" viewBox="0 0 32 32" fill="none" xmlns="http://www.w3.org/2000/svg">
<g clip-path="url(#clip0_425_524)">
<path d="M28.9875 14.9002C29.2719 14.5939 29.6906 14.4627 30.0938 14.4439C30.4844 14.4252 30.9281 14.6283 31.2 14.9002C31.4812 15.1845 31.6562 15.6064 31.6562 16.0064C31.6531 16.8627 31.5656 17.7127 31.4375 18.5627C31.1969 20.1283 30.6812 21.6408 29.975 23.0595C29.2875 24.4439 28.3625 25.7252 27.2969 26.8408C26.2344 27.9533 24.9812 28.922 23.6375 29.672C22.2688 30.4345 20.7656 31.0095 19.2281 31.322C17.6281 31.647 15.9719 31.7533 14.3469 31.5627C13.4875 31.4627 12.6375 31.322 11.8031 31.0908C10.9813 30.8627 10.1844 30.5502 9.40937 30.2002C7.99687 29.5595 6.69687 28.6752 5.5375 27.647C4.38437 26.622 3.38437 25.4002 2.5875 24.0845C1.77812 22.7502 1.15938 21.2658 0.793751 19.7533C0.409376 18.172 0.25625 16.5127 0.384375 14.8908C0.509375 13.2908 0.84375 11.7127 1.45312 10.2283C1.77188 9.45016 2.125 8.69391 2.55625 7.97203C2.98438 7.25953 3.47812 6.58766 4.00625 5.94703C4.9875 4.75328 6.175 3.72828 7.4625 2.87828C8.7625 2.01891 10.2219 1.36266 11.7219 0.937657C13.2781 0.493907 14.9312 0.293907 16.5469 0.356407C18.1469 0.415782 19.7625 0.706407 21.2688 1.25953C22.7375 1.80016 24.1281 2.51891 25.3688 3.47203C26.0344 3.98141 26.6719 4.51578 27.2531 5.11891C27.8281 5.71578 28.35 6.36578 28.8312 7.04078C29.7375 8.31266 30.4281 9.74078 30.9094 11.222C31.4062 12.7533 31.65 14.3908 31.6531 16.0002C31.6562 16.4252 31.4781 16.8002 31.1969 17.1064C30.9125 17.4127 30.4938 17.5439 30.0906 17.5627C29.7 17.5814 29.2562 17.3783 28.9844 17.1064C28.7031 16.822 28.5281 16.4002 28.5281 16.0002C28.5281 15.3627 28.4844 14.7252 28.4 14.0908C28.4188 14.2283 28.4375 14.3689 28.4562 14.5064C28.2875 13.2783 27.9625 12.0783 27.4812 10.9377C27.5312 11.0595 27.5844 11.1845 27.6375 11.3095C27.1656 10.197 26.5531 9.14703 25.8156 8.18766C25.8969 8.29391 25.9781 8.39703 26.0594 8.50328C25.3156 7.54078 24.4531 6.67828 23.4906 5.93453C23.5969 6.01578 23.7 6.09703 23.8062 6.17828C22.8469 5.44078 21.7969 4.82828 20.6844 4.35641C20.8062 4.40641 20.9312 4.45953 21.0562 4.51266C19.9125 4.03453 18.7125 3.70641 17.4875 3.53766C17.625 3.55641 17.7656 3.57516 17.9031 3.59391C16.6344 3.42516 15.35 3.42516 14.0844 3.59391C14.2219 3.57516 14.3625 3.55641 14.5 3.53766C13.2719 3.70641 12.0719 4.03141 10.9312 4.51266C11.0531 4.46266 11.1781 4.40953 11.3031 4.35641C10.1906 4.82828 9.14062 5.44078 8.18125 6.17828C8.2875 6.09703 8.39062 6.01578 8.49688 5.93453C7.53438 6.67828 6.67188 7.54078 5.92813 8.50328C6.00937 8.39703 6.09063 8.29391 6.17188 8.18766C5.43438 9.14703 4.82187 10.197 4.35 11.3095C4.4 11.1877 4.45312 11.0627 4.50625 10.9377C4.02813 12.0814 3.7 13.2814 3.53125 14.5064C3.55 14.3689 3.56875 14.2283 3.5875 14.0908C3.41875 15.3595 3.41875 16.6439 3.5875 17.9095C3.56875 17.772 3.55 17.6314 3.53125 17.4939C3.7 18.722 4.025 19.922 4.50625 21.0627C4.45625 20.9408 4.40313 20.8158 4.35 20.6908C4.82243 21.8045 5.43464 22.8535 6.17188 23.8127C6.09063 23.7064 6.00937 23.6033 5.92813 23.497C6.67188 24.4595 7.53438 25.322 8.49688 26.0658C8.39062 25.9845 8.2875 25.9033 8.18125 25.822C9.1404 26.5593 10.1894 27.1715 11.3031 27.6439C11.1812 27.5939 11.0562 27.5408 10.9312 27.4877C12.075 27.9658 13.275 28.2939 14.5 28.4627C14.3625 28.4439 14.2219 28.4252 14.0844 28.4064C15.3531 28.5752 16.6375 28.5752 17.9031 28.4064C17.7656 28.4252 17.625 28.4439 17.4875 28.4627C18.7156 28.2939 19.9156 27.9689 21.0562 27.4877C20.9344 27.5377 20.8094 27.5908 20.6844 27.6439C21.7981 27.1715 22.8471 26.5593 23.8062 25.822C23.7 25.9033 23.5969 25.9845 23.4906 26.0658C24.4531 25.322 25.3156 24.4595 26.0594 23.497C25.9781 23.6033 25.8969 23.7064 25.8156 23.8127C26.5529 22.8535 27.1651 21.8045 27.6375 20.6908C27.5875 20.8127 27.5344 20.9377 27.4812 21.0627C27.9594 19.9189 28.2875 18.7189 28.4562 17.4939C28.4375 17.6314 28.4188 17.772 28.4 17.9095C28.4844 17.2752 28.5281 16.6377 28.5281 16.0002C28.5281 15.5752 28.7062 15.2002 28.9875 14.9002Z" fill="white"/>
<path d="M22.5032 14.5316C22.9251 14.5316 23.3032 14.7097 23.6094 14.9878C23.9157 15.2722 24.0469 15.691 24.0657 16.0941C24.0844 16.4847 23.8813 16.9285 23.6094 17.2003C23.3251 17.4816 22.9032 17.6566 22.5032 17.6566H22.4813C21.9563 17.6628 21.4344 17.6566 20.9094 17.6566H9.60944C9.18444 17.6566 8.80944 17.4816 8.50319 17.2003C8.19694 16.916 8.06569 16.4972 8.04694 16.0941C8.02819 15.7035 8.23132 15.2597 8.50319 14.9878C8.78757 14.7066 9.20944 14.5316 9.60944 14.5316H9.63132C10.1563 14.5253 10.6782 14.5316 11.2032 14.5316H22.5032Z" fill="white"/>
<path d="M16.6187 20.5595C16.925 20.8439 17.0594 21.2595 17.075 21.6595C17.0937 22.0782 16.8906 22.4689 16.6187 22.7658C16.3531 23.0533 15.8969 23.222 15.5125 23.222C15.0938 23.222 14.7062 23.0439 14.4062 22.7658C14.1594 22.5376 13.9094 22.3064 13.6625 22.0783C12.5844 21.0814 11.5031 20.0814 10.425 19.0845C9.74687 18.4564 9.06562 17.8251 8.38437 17.197C7.775 16.6314 7.79062 15.5533 8.38437 14.9876C8.63125 14.7533 8.88125 14.5158 9.12812 14.2783C10.2062 13.247 11.2844 12.2189 12.3625 11.1876C13.0437 10.5345 13.7281 9.8845 14.4094 9.23138C14.7187 8.93763 15.0969 8.79388 15.5156 8.77513C15.9344 8.75638 16.325 8.9595 16.6219 9.23138C16.9094 9.497 17.0781 9.95325 17.0781 10.3376C17.0781 10.7314 16.9062 11.172 16.6219 11.4439C16.375 11.6783 16.125 11.9158 15.8781 12.1533C14.8 13.1845 13.7219 14.2126 12.6437 15.2439C11.9625 15.897 11.2781 16.547 10.5969 17.2001V14.9908C10.8437 15.2189 11.0938 15.4501 11.3406 15.6783C12.4188 16.6751 13.5 17.6751 14.5781 18.672C15.2563 19.3001 15.9375 19.9314 16.6187 20.5595Z" fill="white"/>
</g>
<defs>
<clipPath id="clip0_425_524">
<rect width="32" height="32" fill="white" transform="matrix(-1 0 0 1 32 0)"/>
</clipPath>
</defs>
</svg>
