<svg width="21" height="21" viewBox="0 0 21 21" fill="none" xmlns="http://www.w3.org/2000/svg">
<path d="M0.5 10.704C0.5 8.415 0.5 7.271 1.02 6.323C1.538 5.374 2.487 4.786 4.384 3.608L6.384 2.367C8.389 1.122 9.392 0.5 10.5 0.5C11.608 0.5 12.61 1.122 14.616 2.367L16.616 3.608C18.513 4.786 19.462 5.374 19.981 6.323C20.5 7.272 20.5 8.415 20.5 10.703V12.225C20.5 16.125 20.5 18.076 19.328 19.288C18.156 20.5 16.271 20.5 12.5 20.5H8.5C4.729 20.5 2.843 20.5 1.672 19.288C0.501 18.076 0.5 16.126 0.5 12.225V10.704Z" stroke="#FF6D00"/>
</svg>
