<svg width="20" height="20" viewBox="0 0 20 20" fill="none" xmlns="http://www.w3.org/2000/svg">
<path d="M12.7 18.5586H12.5917C8.89167 18.5586 7.10834 17.1002 6.8 13.8336C6.76667 13.4919 7.01667 13.1836 7.36667 13.1502C7.7 13.1169 8.01667 13.3752 8.05 13.7169C8.29167 16.3336 9.525 17.3086 12.6 17.3086H12.7083C16.1 17.3086 17.3 16.1086 17.3 12.7169V7.28356C17.3 3.89189 16.1 2.69189 12.7083 2.69189H12.6C9.50834 2.69189 8.275 3.68356 8.05 6.35023C8.00834 6.69189 7.71667 6.95023 7.36667 6.91689C7.01667 6.89189 6.76667 6.58356 6.79167 6.24189C7.075 2.92523 8.86667 1.44189 12.5917 1.44189H12.7C16.7917 1.44189 18.5417 3.19189 18.5417 7.28356V12.7169C18.5417 16.8086 16.7917 18.5586 12.7 18.5586Z" fill="#EF3A30"/>
<path d="M12.5 10.625H3.01667C2.675 10.625 2.39167 10.3417 2.39167 10C2.39167 9.65833 2.675 9.375 3.01667 9.375H12.5C12.8417 9.375 13.125 9.65833 13.125 10C13.125 10.3417 12.8417 10.625 12.5 10.625Z" fill="#EF3A30"/>
<path d="M4.875 13.4167C4.71667 13.4167 4.55834 13.3584 4.43334 13.2334L1.64167 10.4417C1.4 10.2 1.4 9.80003 1.64167 9.55837L4.43334 6.7667C4.675 6.52503 5.075 6.52503 5.31667 6.7667C5.55834 7.00837 5.55834 7.40837 5.31667 7.65003L2.96667 10L5.31667 12.35C5.55834 12.5917 5.55834 12.9917 5.31667 13.2334C5.2 13.3584 5.03334 13.4167 4.875 13.4167Z" fill="#EF3A30"/>
</svg>
