<svg width="43" height="45" viewBox="0 0 43 45" fill="none" xmlns="http://www.w3.org/2000/svg">
<path d="M21.5 10C23.7091 10 25.5 8.20914 25.5 6C25.5 3.79086 23.7091 2 21.5 2C19.2909 2 17.5 3.79086 17.5 6C17.5 8.20914 19.2909 10 21.5 10Z" stroke="#808080"/>
<path d="M29.5 17.5C29.5 19.985 29.5 22 21.5 22C13.5 22 13.5 19.985 13.5 17.5C13.5 15.015 17.082 13 21.5 13C25.918 13 29.5 15.015 29.5 17.5Z" stroke="#808080"/>
<path d="M7.86958 32.098C7.86958 32.91 7.58958 33.5867 7.02958 34.128C6.47891 34.66 5.63425 34.926 4.49558 34.926H2.61958V39H1.34558V29.242H4.49558C5.59691 29.242 6.43225 29.508 7.00158 30.04C7.58025 30.572 7.86958 31.258 7.86958 32.098ZM4.49558 33.876C5.20491 33.876 5.72758 33.722 6.06358 33.414C6.39958 33.106 6.56758 32.6673 6.56758 32.098C6.56758 30.894 5.87691 30.292 4.49558 30.292H2.61958V33.876H4.49558ZM10.727 32.574C10.951 32.1353 11.2683 31.7947 11.679 31.552C12.099 31.3093 12.6077 31.188 13.205 31.188V32.504H12.869C11.441 32.504 10.727 33.2787 10.727 34.828V39H9.453V31.328H10.727V32.574ZM18.0217 39.126C17.303 39.126 16.6497 38.9627 16.0617 38.636C15.483 38.3093 15.0257 37.8473 14.6897 37.25C14.363 36.6433 14.1997 35.9433 14.1997 35.15C14.1997 34.366 14.3677 33.6753 14.7037 33.078C15.049 32.4713 15.5157 32.0093 16.1037 31.692C16.6917 31.3653 17.3497 31.202 18.0777 31.202C18.8057 31.202 19.4637 31.3653 20.0517 31.692C20.6397 32.0093 21.1017 32.4667 21.4377 33.064C21.783 33.6613 21.9557 34.3567 21.9557 35.15C21.9557 35.9433 21.7783 36.6433 21.4237 37.25C21.0783 37.8473 20.607 38.3093 20.0097 38.636C19.4123 38.9627 18.7497 39.126 18.0217 39.126ZM18.0217 38.006C18.479 38.006 18.9083 37.8987 19.3097 37.684C19.711 37.4693 20.033 37.1473 20.2757 36.718C20.5277 36.2887 20.6537 35.766 20.6537 35.15C20.6537 34.534 20.5323 34.0113 20.2897 33.582C20.047 33.1527 19.7297 32.8353 19.3377 32.63C18.9457 32.4153 18.521 32.308 18.0637 32.308C17.597 32.308 17.1677 32.4153 16.7757 32.63C16.393 32.8353 16.085 33.1527 15.8517 33.582C15.6183 34.0113 15.5017 34.534 15.5017 35.15C15.5017 35.7753 15.6137 36.3027 15.8377 36.732C16.071 37.1613 16.379 37.4833 16.7617 37.698C17.1443 37.9033 17.5643 38.006 18.0217 38.006ZM26.7527 32.378H25.1427V39H23.8687V32.378H22.8747V31.328H23.8687V30.782C23.8687 29.9233 24.0881 29.298 24.5267 28.906C24.9747 28.5047 25.6887 28.304 26.6687 28.304V29.368C26.1087 29.368 25.7121 29.48 25.4787 29.704C25.2547 29.9187 25.1427 30.278 25.1427 30.782V31.328H26.7527V32.378ZM28.8962 30.082C28.6535 30.082 28.4482 29.998 28.2802 29.83C28.1122 29.662 28.0282 29.4567 28.0282 29.214C28.0282 28.9713 28.1122 28.766 28.2802 28.598C28.4482 28.43 28.6535 28.346 28.8962 28.346C29.1295 28.346 29.3255 28.43 29.4842 28.598C29.6522 28.766 29.7362 28.9713 29.7362 29.214C29.7362 29.4567 29.6522 29.662 29.4842 29.83C29.3255 29.998 29.1295 30.082 28.8962 30.082ZM29.5122 31.328V39H28.2382V31.328H29.5122ZM32.9575 28.64V39H31.6835V28.64H32.9575ZM42.1288 34.87C42.1288 35.1127 42.1148 35.3693 42.0868 35.64H35.9548C36.0014 36.396 36.2581 36.9887 36.7248 37.418C37.2008 37.838 37.7748 38.048 38.4468 38.048C38.9974 38.048 39.4548 37.922 39.8188 37.67C40.1921 37.4087 40.4534 37.0633 40.6028 36.634H41.9748C41.7694 37.3713 41.3588 37.9733 40.7428 38.44C40.1268 38.8973 39.3614 39.126 38.4468 39.126C37.7188 39.126 37.0654 38.9627 36.4868 38.636C35.9174 38.3093 35.4694 37.8473 35.1428 37.25C34.8161 36.6433 34.6528 35.9433 34.6528 35.15C34.6528 34.3567 34.8114 33.6613 35.1288 33.064C35.4461 32.4667 35.8894 32.0093 36.4588 31.692C37.0374 31.3653 37.7001 31.202 38.4468 31.202C39.1748 31.202 39.8188 31.3607 40.3788 31.678C40.9388 31.9953 41.3681 32.434 41.6668 32.994C41.9748 33.5447 42.1288 34.17 42.1288 34.87ZM40.8128 34.604C40.8128 34.1187 40.7054 33.7033 40.4908 33.358C40.2761 33.0033 39.9821 32.7373 39.6088 32.56C39.2448 32.3733 38.8388 32.28 38.3908 32.28C37.7468 32.28 37.1961 32.4853 36.7388 32.896C36.2908 33.3067 36.0341 33.876 35.9688 34.604H40.8128Z" fill="#808080"/>
</svg>
