<svg width="23" height="24" viewBox="0 0 23 24" fill="none" xmlns="http://www.w3.org/2000/svg">
<path d="M3.68798 15.5212H0.328125C0.241101 15.5212 0.157641 15.5558 0.0961056 15.6173C0.0345702 15.6789 0 15.7623 0 15.8494V22.8183C0 22.9053 0.0345702 22.9888 0.0961056 23.0503C0.157641 23.1118 0.241101 23.1464 0.328125 23.1464H3.68794C3.77496 23.1464 3.85842 23.1118 3.91996 23.0503C3.98149 22.9888 4.01606 22.9053 4.01606 22.8183V15.8494C4.01607 15.8063 4.0076 15.7636 3.99111 15.7238C3.97463 15.684 3.95047 15.6478 3.92 15.6173C3.88953 15.5869 3.85336 15.5627 3.81355 15.5462C3.77374 15.5297 3.73107 15.5212 3.68798 15.5212ZM3.35986 22.4902H0.65625V16.1775H3.35981L3.35986 22.4902ZM9.74686 12.4893H6.38705C6.30002 12.4893 6.21656 12.5239 6.15503 12.5854C6.09349 12.647 6.05892 12.7304 6.05892 12.8174V22.8183C6.05892 22.9053 6.09349 22.9888 6.15503 23.0503C6.21656 23.1118 6.30002 23.1464 6.38705 23.1464H9.74686C9.83388 23.1464 9.91734 23.1118 9.97888 23.0503C10.0404 22.9888 10.075 22.9053 10.075 22.8183V12.8174C10.075 12.7304 10.0404 12.647 9.97888 12.5854C9.91734 12.5239 9.83388 12.4893 9.74686 12.4893ZM9.41873 22.4902H6.71517V13.1456H9.41873V22.4902ZM15.8057 9.4574H12.4459C12.3589 9.4574 12.2754 9.49197 12.2139 9.55351C12.1524 9.61504 12.1178 9.6985 12.1178 9.78553V22.8183C12.1178 22.9053 12.1524 22.9888 12.2139 23.0503C12.2754 23.1118 12.3589 23.1464 12.4459 23.1464H15.8057C15.8928 23.1464 15.9762 23.1118 16.0378 23.0503C16.0993 22.9888 16.1339 22.9053 16.1339 22.8183V9.78553C16.1339 9.74243 16.1254 9.69976 16.1089 9.65995C16.0924 9.62013 16.0682 9.58396 16.0377 9.55349C16.0073 9.52302 15.9711 9.49885 15.9313 9.48236C15.8915 9.46588 15.8488 9.45739 15.8057 9.4574ZM15.4776 22.4902H12.774V10.1137H15.4776V22.4902H15.4776ZM21.8647 6.42552H18.5048C18.4178 6.42552 18.3344 6.4601 18.2728 6.52163C18.2113 6.58317 18.1767 6.66663 18.1767 6.75365V22.8183C18.1767 22.9053 18.2113 22.9888 18.2728 23.0503C18.3344 23.1118 18.4178 23.1464 18.5048 23.1464H21.8647C21.9517 23.1464 22.0351 23.1118 22.0967 23.0503C22.1582 22.9888 22.1928 22.9053 22.1928 22.8183V6.75365C22.1928 6.66663 22.1582 6.58317 22.0967 6.52163C22.0351 6.4601 21.9517 6.42552 21.8647 6.42552ZM21.5365 22.4902H18.833V7.08177H21.5365V22.4902ZM18.1754 3.10185C18.1811 3.18869 18.1521 3.27424 18.0947 3.33969C18.0373 3.40514 17.9563 3.44512 17.8695 3.45084C17.7827 3.45656 17.6971 3.42754 17.6317 3.37018C17.5662 3.31282 17.5262 3.23182 17.5205 3.14498L17.4016 1.34034C15.9608 3.71249 13.85 5.83499 11.2445 7.52006C8.24719 9.45848 4.67827 10.7562 0.923531 11.2729C0.837319 11.2847 0.749934 11.2618 0.680588 11.2093C0.611243 11.1567 0.565614 11.0787 0.553734 10.9925C0.541869 10.9063 0.564736 10.8189 0.617305 10.7496C0.669874 10.6802 0.747838 10.6346 0.834047 10.6227C7.83066 9.6599 13.9183 5.94313 16.9326 0.846837L15.0663 1.33115C15.0246 1.34199 14.9812 1.3445 14.9385 1.33855C14.8958 1.33259 14.8547 1.31829 14.8176 1.29645C14.7804 1.27461 14.748 1.24566 14.722 1.21126C14.696 1.17687 14.6771 1.13769 14.6663 1.09598C14.6444 1.01174 14.6569 0.922277 14.701 0.847256C14.7451 0.772236 14.8172 0.717808 14.9015 0.695946L17.4315 0.0393212C17.6529 -0.0313663 17.7911 0.00594618 17.8552 0.0522587C17.8944 0.0805287 17.9268 0.117093 17.9502 0.159342C17.9735 0.20159 17.9873 0.248481 17.9905 0.296665L18.1754 3.10185Z" fill="#808080"/>
</svg>
